# xmcd
#
# Track frame offsets:
#	150
#	20395
#	45235
#	64480
#	86427
#	106947
#	131810
#	140025
#	162705
#	181740
#	202980
#	225700
#	250127
#
# Disc length: 3440 seconds
#
# Revision: 1
# Processed by: cddbd v1.5PL3 Copyright (c) Steve Scherf et al.
# Submitted via: CDex 1.50Beta5
#
DISCID=b00d6e0d
DTITLE=J-WALK - 13歳
DYEAR=1900
DGENRE=Pop
TTITLE0=RELAX
TTITLE1=RELAY RUNNER
TTITLE2=君にいて欲しい
TTITLE3=優しい蜃気楼
TTITLE4=風に向かって、歩きたい
TTITLE5=悲しみは涙にとけて
TTITLE6=HERE WE GO!(INST.)
TTITLE7=君だけ、ONLY YOU
TTITLE8=思い出に手を振って
TTITLE9=明日は君の宝物
TTITLE10=O・RE・TA・CHIの街で・・・
TTITLE11=青いステイションワゴン-EXTRA LIVE TRACK-
TTITLE12=GOING HOME〜THEME OF THE LOCAL HERO〜(INST.)
EXTD=
EXTT0=
EXTT1=
EXTT2=
EXTT3=
EXTT4=
EXTT5=
EXTT6=
EXTT7=
EXTT8=
EXTT9=
EXTT10=
EXTT11=
EXTT12=
PLAYORDER=
